# xmcd CD database file
#
# Track frame offsets:
#	150
#	21512
#	41405
#	60085
#	76337
#	105537
#	129222
#	146815
#	163455
#	182472
#	209077
#	227115
#
# Disc length: 3305 seconds
#
# Revision: 0
# Processed by: cddbd v1.5.1PL2 Copyright (c) Steve Scherf et al.
# Submitted via: CDex 1.50
#
DISCID=a10ce70c
DTITLE=Mila - Deltal Lightning
DYEAR=1989
DGENRE=Blues
TTITLE0=El Norte
TTITLE1=Snake's Alive
TTITLE2=Waterfalls
TTITLE3=Music Alone Shall Live
TTITLE4=Free the People with Music
TTITLE5=Swamp Party
TTITLE6=Lily
TTITLE7=Raincloud
TTITLE8=Vaquera
TTITLE9=Black Kimonos Passing with the Moon
TTITLE10=Swamp Party Revisted
TTITLE11=Amazing Grace-Nearer My God to Thee
EXTD=YEAR: 1989
EXTT0=
EXTT1=
EXTT2=
EXTT3=
EXTT4=
EXTT5=
EXTT6=
EXTT7=
EXTT8=
EXTT9=
EXTT10=
EXTT11=
PLAYORDER=
